<svg viewBox="0 0 60 68" xmlns="http://www.w3.org/2000/svg">
  <defs>
    <linearGradient id="nami-gold" x1="0" y1="0" x2="0" y2="1">
      <stop offset="0" stop-color="#F7DE8A"/><stop offset=".45" stop-color="#D4AF37"/><stop offset="1" stop-color="#96701A"/>
    </linearGradient>
  </defs>
  <path d="M8 2h44l6 9v14c0 19-12 33-28 41C14 58 2 44 2 25V11z" fill="url(#nami-gold)"/>
  <path d="M10 6.5h40l3.5 5.5v13c0 16.5-10.2 28.6-23.5 36C16.7 53.6 6.5 41.5 6.5 25V12z" fill="none" stroke="#0F0E0C" stroke-width="1.3"/>
  <g fill="#0F0E0C">
    <ellipse cx="30" cy="38" rx="8.6" ry="6.4"/>
    <ellipse cx="19.6" cy="29.6" rx="3.3" ry="4"/>
    <ellipse cx="25.8" cy="23.6" rx="3.4" ry="4.2"/>
    <ellipse cx="34.2" cy="23.6" rx="3.4" ry="4.2"/>
    <ellipse cx="40.4" cy="29.6" rx="3.3" ry="4"/>
  </g>
</svg>
